<svg width="375" height="81" viewBox="0 0 375 81" fill="none" xmlns="http://www.w3.org/2000/svg">
<path d="M2.75073 67V62.1875H4.00073C5.4174 62.1875 6.6049 61.8542 7.56323 61.1875C8.5424 60.5 9.33407 59.4062 9.93823 57.9062C10.5632 56.3854 11.0528 54.4062 11.407 51.9688C11.7611 49.5104 12.0111 46.5 12.157 42.9375L12.907 26.3125L8.03198 25.4688V21.5H46.0007V25.4688L40.907 26.3438V62.1875L46.0007 63.0625V67H29.657V63.0625L34.7507 62.1875V26.3438H19.032L18.282 42.9375C18.0945 47.2083 17.7195 50.8646 17.157 53.9062C16.5945 56.9479 15.7716 59.4375 14.6882 61.375C13.6257 63.3125 12.2507 64.7396 10.5632 65.6562C8.87573 66.5521 6.81323 67 4.37573 67H2.75073ZM51.2507 67V63.0625L56.3445 62.1875V38.0312L51.2507 37.1562V33.1875H62.4695H67.5632V37.1562L62.4695 38.0312V57.125L62.657 57.1875L77.5632 33.1875H83.7195H88.8132V37.1562L83.7195 38.0312V62.1875L88.8132 63.0625V67H72.4695V63.0625L77.5632 62.1875V43.0625L77.3757 43L62.4695 67H51.2507ZM124.563 77.0312V67H94.032V63.0625L99.1257 62.1875V38.0312L94.032 37.1562V33.1875H110.376V37.1562L105.282 38.0312V62.1875H120.344V38.0312L115.251 37.1562V33.1875H131.594V37.1562L126.501 38.0625V62.1875H130.657L130.063 77.0312H124.563ZM152.126 67.6562C149.001 67.6562 146.282 66.9479 143.969 65.5312C141.657 64.0938 139.865 62.1042 138.594 59.5625C137.344 57.0208 136.719 54.0833 136.719 50.75V49.375C136.719 46.1667 137.376 43.3021 138.688 40.7812C140.022 38.2396 141.782 36.2396 143.969 34.7812C146.178 33.3021 148.584 32.5625 151.188 32.5625C154.23 32.5625 156.772 33.1875 158.813 34.4375C160.876 35.6875 162.428 37.4479 163.469 39.7188C164.511 41.9688 165.032 44.625 165.032 47.6875V51.5312H143.094L143.001 51.6875C143.042 53.8542 143.417 55.7812 144.126 57.4688C144.855 59.1354 145.897 60.4479 147.251 61.4062C148.605 62.3646 150.23 62.8438 152.126 62.8438C154.209 62.8438 156.032 62.5521 157.594 61.9688C159.178 61.3646 160.542 60.5417 161.688 59.5L164.094 63.5C162.886 64.6667 161.282 65.6562 159.282 66.4688C157.303 67.2604 154.917 67.6562 152.126 67.6562ZM143.282 46.7188H158.876V45.9062C158.876 44.2812 158.584 42.8333 158.001 41.5625C157.438 40.2708 156.584 39.2604 155.438 38.5312C154.313 37.7812 152.897 37.4062 151.188 37.4062C149.813 37.4062 148.563 37.8125 147.438 38.625C146.313 39.4167 145.386 40.5 144.657 41.875C143.928 43.25 143.449 44.8125 143.219 46.5625L143.282 46.7188ZM170.563 67V63.0625L175.657 62.1875V38.0312L170.563 37.1562V33.1875H181.782H186.876V37.1562L181.782 38.0312V57.125L181.969 57.1875L196.876 33.1875H203.032H208.126V37.1562L203.032 38.0312V62.1875L208.126 63.0625V67H191.782V63.0625L196.876 62.1875V43.0625L196.688 43L181.782 67H170.563ZM189.532 27.25C186.511 27.25 184.136 26.4375 182.407 24.8125C180.678 23.1667 179.813 21.0417 179.813 18.4375L179.876 18.25H184.563C184.563 19.75 184.959 20.9688 185.751 21.9062C186.563 22.8438 187.824 23.3125 189.532 23.3125C191.199 23.3125 192.438 22.8438 193.251 21.9062C194.063 20.9688 194.469 19.75 194.469 18.25H199.188L199.251 18.4375C199.23 21.0417 198.355 23.1667 196.626 24.8125C194.917 26.4375 192.553 27.25 189.532 27.25Z" fill="white"/>
<path d="M224.602 67V63.0625L229.695 62.1875V26.3438L224.602 25.4688V21.5H229.695H235.852L257.727 56.5938L257.914 56.5312V26.3438L252.82 25.4688V21.5H264.07H269.164V25.4688L264.07 26.3438V67H257.914L236.039 31.875L235.852 31.9375V62.1875L240.945 63.0625V67H224.602ZM273.477 55.7188V51.1875H290.945V55.7188H273.477ZM282.258 45.5625C278.945 45.5625 276.31 44.6042 274.352 42.6875C272.393 40.75 271.414 38.2292 271.414 35.125V31.4688C271.414 29.4062 271.852 27.5938 272.727 26.0312C273.623 24.4479 274.873 23.2188 276.477 22.3438C278.102 21.4479 280.008 21 282.195 21C284.404 21 286.31 21.4479 287.914 22.3438C289.539 23.2188 290.789 24.4479 291.664 26.0312C292.56 27.5938 293.008 29.4062 293.008 31.4688V35.125C293.008 38.2292 292.029 40.75 290.07 42.6875C288.133 44.6042 285.529 45.5625 282.258 45.5625ZM282.258 41.1562C283.987 41.1562 285.31 40.6042 286.227 39.5C287.164 38.3958 287.633 36.9375 287.633 35.125V31.4688C287.633 29.7188 287.164 28.2812 286.227 27.1562C285.289 26.0312 283.945 25.4688 282.195 25.4688C280.445 25.4688 279.102 26.0312 278.164 27.1562C277.248 28.2812 276.789 29.7188 276.789 31.4688V35.125C276.789 36.9375 277.248 38.3958 278.164 39.5C279.102 40.6042 280.466 41.1562 282.258 41.1562ZM311.32 67.6562C308.758 67.6562 306.456 67.1875 304.414 66.25C302.393 65.3125 300.81 63.9271 299.664 62.0938C298.518 60.2396 297.977 57.9479 298.039 55.2188L298.102 55.0312H303.664C303.664 57.4896 304.373 59.4062 305.789 60.7812C307.227 62.1562 309.07 62.8438 311.32 62.8438C313.925 62.8438 315.945 61.9271 317.383 60.0938C318.82 58.2604 319.539 55.75 319.539 52.5625C319.539 49.625 318.81 47.2292 317.352 45.375C315.914 43.5 313.914 42.5625 311.352 42.5625C308.935 42.5625 307.175 42.9271 306.07 43.6562C304.987 44.3854 304.195 45.5 303.695 47L298.57 46.4688L301.195 21.5H325.227V30.5H320.602L320.008 26.9688H306.414L304.945 39.75C305.57 39.2708 306.248 38.8542 306.977 38.5C307.706 38.125 308.498 37.8229 309.352 37.5938C310.227 37.3646 311.175 37.2396 312.195 37.2188C314.987 37.1979 317.393 37.8125 319.414 39.0625C321.435 40.2917 322.987 42.0625 324.07 44.375C325.154 46.6667 325.695 49.375 325.695 52.5C325.695 55.5417 325.143 58.1979 324.039 60.4688C322.956 62.7396 321.341 64.5104 319.195 65.7812C317.07 67.0312 314.445 67.6562 311.32 67.6562Z" fill="#DB2B07"/>
</svg>
